C:\Users\r0593348\3dpredictsim\Results\Batchsim_tmt_linear\Pog_s1_tmt_bCst_d05_k2000_ig24_pas_GRF.mot
nRows=12
nColumns=19

name C:\Users\r0593348\3dpredictsim\Results\Batchsim_tmt_linear\Pog_s1_tmt_bCst_d05_k2000_ig24_pas_GRF.mot
datacolumns 19
datarows 12
range 0.5501355973 0.6711654287
endheader
time 	ground_force_vx	ground_force_vy	ground_force_vz	ground_force_px	ground_force_py	ground_force_pz	1_ground_force_vx	1_ground_force_vy	1_ground_force_vz	1_ground_force_px	1_ground_force_py	1_ground_force_pz	ground_torque_x	ground_torque_y	ground_torque_z	1_ground_torque_x	1_ground_torque_y	1_ground_torque_z
        0.5501355973	      101.4912373047	      527.1503309240	        3.0122711962	        0.3779190923	        0.0000000000	        0.0360464345	      -76.8350121523	       61.4378680873	      -26.6391291973	        0.8595500187	        0.0000000000	       -0.0386943576	        0.0000000000	        0.0000000000	        0.0000000000	        0.0000000000	        0.0000000000	        0.0000000000	
        0.5611383092	       85.8045530517	      450.6282786979	        6.9696146642	        0.3809793007	        0.0000000000	        0.0352790871	     -120.7563348024	      134.1709888489	      -67.3100901452	        0.8673627709	        0.0000000000	       -0.0363714993	        0.0000000000	        0.0000000000	        0.0000000000	        0.0000000000	        0.0000000000	        0.0000000000	
        0.5721410212	       69.6224874981	      365.5876170738	        8.8043782677	        0.3855512876	        0.0000000000	        0.0338015310	      -47.2216406978	      264.7117710862	      -34.0086336608	        0.8731471166	        0.0000000000	       -0.0339805975	        0.0000000000	        0.0000000000	        0.0000000000	        0.0000000000	        0.0000000000	        0.0000000000	
        0.5831437331	       48.4896803570	      274.9730112926	        5.3529390058	        0.3928258112	        0.0000000000	        0.0308593503	      -37.4923906734	      410.1702073485	       -5.2636375747	        0.8764140343	        0.0000000000	       -0.0337130920	        0.0000000000	        0.0000000000	        0.0000000000	        0.0000000000	        0.0000000000	        0.0000000000	
        0.5941464451	       21.6364768636	      179.1932368608	        6.9984191772	        0.4064622551	        0.0000000000	        0.0246512167	      -66.1846078844	      584.5606005081	        4.1407529490	        0.8838397761	        0.0000000000	       -0.0358843619	        0.0000000000	        0.0000000000	        0.0000000000	        0.0000000000	        0.0000000000	        0.0000000000	
        0.6051491570	        4.9544478143	      133.2057964453	       11.6163583825	        0.4152585111	        0.0000000000	        0.0201139061	      -93.8303021754	      732.2233641071	       10.1720492761	        0.8906729241	        0.0000000000	       -0.0379540318	        0.0000000000	        0.0000000000	        0.0000000000	        0.0000000000	        0.0000000000	        0.0000000000	
        0.6161518690	        1.9742051280	      102.4347028472	       12.3270425599	        0.4156919984	        0.0000000000	        0.0202275026	     -106.4232015179	      807.7280645859	       11.9874249090	        0.8953407877	        0.0000000000	       -0.0392512257	        0.0000000000	        0.0000000000	        0.0000000000	        0.0000000000	        0.0000000000	        0.0000000000	
        0.6271545809	       -2.4026731417	       66.2076322979	       11.2128097454	        0.4161222173	        0.0000000000	        0.0202708065	     -105.7425419135	      825.4347182504	       12.6211647364	        0.8987334043	        0.0000000000	       -0.0400381486	        0.0000000000	        0.0000000000	        0.0000000000	        0.0000000000	        0.0000000000	        0.0000000000	
        0.6381572929	       -8.0566495679	       26.9150847683	        5.5480593651	        0.4157641331	        0.0000000000	        0.0199734183	      -99.2049459796	      815.1438694497	       12.7594009632	        0.9017104342	        0.0000000000	       -0.0404995905	        0.0000000000	        0.0000000000	        0.0000000000	        0.0000000000	        0.0000000000	        0.0000000000	
        0.6491600048	        0.0923052078	       -0.0913583034	       -0.0021586162	        0.0000000000	        0.0000000000	        0.0000000000	      -89.8656974113	      797.6896389882	       13.3775824414	        0.9048905642	        0.0000000000	       -0.0407260756	        0.0000000000	        0.0000000000	        0.0000000000	        0.0000000000	        0.0000000000	        0.0000000000	
        0.6601627167	        0.0001529426	       -0.0001243028	        0.0000082596	        0.0000000000	        0.0000000000	        0.0000000000	      -78.1837012382	      771.5297999687	       14.2625006682	        0.9082081149	        0.0000000000	       -0.0408334012	        0.0000000000	        0.0000000000	        0.0000000000	        0.0000000000	        0.0000000000	        0.0000000000	
        0.6711654287	        0.0000522352	       -0.0000368416	        0.0000037833	        0.0000000000	        0.0000000000	        0.0000000000	      -67.9786456951	      743.0916882839	       14.7189073609	        0.9122152468	        0.0000000000	       -0.0408470026	        0.0000000000	        0.0000000000	        0.0000000000	        0.0000000000	        0.0000000000	        0.0000000000	
